<?xml version="1.0" standalone="no"?>
<!DOCTYPE svg PUBLIC "-//W3C//DTD SVG 20010904//EN"
 "http://www.w3.org/TR/2001/REC-SVG-20010904/DTD/svg10.dtd">
<svg version="1.0" xmlns="http://www.w3.org/2000/svg"
 width="225.000000pt" height="225.000000pt" viewBox="0 0 225.000000 225.000000"
 preserveAspectRatio="xMidYMid meet">

<g transform="translate(0.000000,225.000000) scale(0.100000,-0.100000)"
fill="#000000" stroke="none">
<path d="M0 1125 l0 -1125 1125 0 1125 0 0 1125 0 1125 -1125 0 -1125 0 0
-1125z m905 825 c8 -24 -3 -48 -26 -55 -26 -8 -49 11 -49 41 0 41 62 54 75 14z
m258 -30 c14 -11 32 -20 41 -20 33 0 129 -43 175 -80 66 -52 97 -96 81 -115
-10 -12 -20 -5 -63 41 -27 30 -72 66 -98 79 -53 27 -129 47 -129 35 0 -16 -42
-22 -65 -10 -14 7 -37 10 -57 6 -45 -8 -144 -69 -140 -85 4 -21 -27 -61 -47
-61 -25 0 -60 -71 -68 -139 -6 -53 -9 -57 -33 -41 -12 7 -13 18 -2 66 6 31 9
61 5 67 -3 6 -2 7 4 4 13 -8 44 58 37 78 -9 22 23 65 49 65 12 0 42 14 66 30
24 16 69 38 100 47 31 9 67 25 80 35 30 23 33 22 64 -2z m352 -307 c13 -55 6
-170 -14 -223 -29 -77 -69 -130 -97 -130 -30 0 -30 11 -3 36 12 10 33 42 47
69 23 44 27 63 28 152 1 56 5 107 9 112 11 19 23 12 30 -16z m-725 -183 c10
-5 21 -22 25 -37 3 -15 15 -39 26 -54 23 -32 24 -45 5 -52 -18 -7 -29 6 -60
73 -35 76 -35 91 4 70z m143 -190 c14 -12 48 -30 74 -42 61 -28 187 -30 247
-5 77 34 124 14 51 -21 -70 -34 -162 -47 -232 -33 -92 18 -213 86 -198 111 10
16 30 12 58 -10z m-95 -549 c8 -4 12 -19 10 -32 -2 -19 -9 -24 -33 -24 -24 0
-31 5 -33 24 -4 23 11 41 33 41 6 0 16 -4 23 -9z m375 -12 c23 -37 -29 -69
-61 -37 -16 16 -15 23 4 43 19 19 43 16 57 -6z m-473 -149 l0 -160 -25 -6
c-14 -3 -55 -4 -91 -2 -76 5 -89 16 -100 84 -15 103 17 154 96 154 l50 0 0 45
c0 45 0 45 35 45 l35 0 0 -160z m985 -5 l0 -160 -32 -3 -33 -3 0 166 0 166 33
-3 32 -3 0 -160z m-385 105 c0 -25 4 -30 25 -30 20 0 25 -5 25 -25 0 -20 -5
-25 -25 -25 -24 0 -25 -2 -25 -65 0 -63 1 -65 25 -65 21 0 25 -5 25 -30 0 -29
-2 -30 -43 -30 -24 0 -48 5 -55 12 -7 7 -12 44 -12 95 0 67 -3 83 -15 83 -9 0
-15 9 -15 25 0 16 6 25 15 25 9 0 15 9 15 24 0 25 11 34 43 35 12 1 17 -7 17
-29z m-490 -150 l0 -120 -35 0 -35 0 0 120 0 120 35 0 35 0 0 -120z m234 114
c14 -5 16 -27 16 -144 0 -161 -4 -170 -90 -174 -79 -4 -102 3 -98 28 3 18 11
21 60 24 38 2 58 8 62 17 4 12 -5 15 -45 15 -40 0 -55 5 -76 26 -23 23 -25 31
-21 101 5 97 21 113 113 113 35 0 70 -3 79 -6z m134 -94 c4 -125 0 -140 -38
-140 l-30 0 0 121 0 120 33 -3 32 -3 3 -95z m371 83 c19 -16 22 -29 23 -109 1
-50 -2 -96 -6 -102 -4 -7 -35 -12 -79 -12 -90 0 -117 15 -117 67 0 54 23 73
87 73 46 0 54 3 51 18 -2 13 -15 18 -61 20 -52 3 -57 5 -57 26 0 33 7 36 76
36 44 0 68 -5 83 -17z"/>
<path d="M834 1776 c-9 -24 4 -48 23 -44 12 2 18 12 18 28 0 29 -32 41 -41 16z"/>
<path d="M594 526 c-3 -7 -4 -33 -2 -57 3 -43 4 -44 41 -47 l37 -3 0 60 0 61
-35 0 c-21 0 -38 -6 -41 -14z"/>
<path d="M957 510 c-4 -16 -4 -43 0 -60 5 -27 9 -30 44 -30 l39 0 0 60 0 60
-39 0 c-35 0 -39 -3 -44 -30z"/>
<path d="M1477 446 c-8 -20 17 -38 45 -34 15 2 24 11 26 26 3 19 -1 22 -31 22
-21 0 -37 -6 -40 -14z"/>
</g>
</svg>
